# xmcd CD database file
#
# Track frame offsets:
#	182
#	35267
#	68185
#	76390
#	106985
#	125235
#	139315
#	165565
#	188250
#	201250
#	226457
#	257025
#	279300
#	298500
#
# Disc length: 4192 seconds
#
# Revision: 0
# Processed by: cddbd v1.4PL0 Copyright (c) Steve Scherf et al.
# Submitted via: CDex 1.50beta9
#
DISCID=c8105e0e
DTITLE=Clifford Brown - Brownie
DYEAR=1900
DGENRE=Jazz
TTITLE0=Jordu
TTITLE1=Parisian Thoroughfare
TTITLE2=Sweet Clifford
TTITLE3=Joy Spring
TTITLE4=Daahoud
TTITLE5=Caravan
TTITLE6=September Song
TTITLE7=What's New
TTITLE8=Swingin
TTITLE9=George's Dilemma
TTITLE10=The Blues Walk
TTITLE11=Sandu
TTITLE12=Gertrude's Bounce
TTITLE13=Powell's Prances
EXTD=
EXTT0=
EXTT1=
EXTT2=
EXTT3=
EXTT4=
EXTT5=
EXTT6=
EXTT7=
EXTT8=
EXTT9=
EXTT10=
EXTT11=
EXTT12=
EXTT13=
PLAYORDER=
